<svg id="svg" xmlns="http://www.w3.org/2000/svg" xmlns:xlink="http://www.w3.org/1999/xlink" width="400" height="400" viewBox="0, 0, 400,400"><g id="svgg"><path id="path0" d="M99.023 39.655 C 44.561 60.113,0.000 77.073,0.000 77.344 C -0.000 77.954,198.376 152.366,200.000 152.365 C 201.563 152.364,275.000 124.849,275.000 124.264 C 275.000 124.013,258.376 116.959,238.059 108.589 L 201.117 93.370 225.619 82.965 L 250.121 72.561 286.975 89.111 C 307.244 98.213,324.225 105.676,324.710 105.695 C 326.069 105.748,400.000 77.913,400.000 77.348 C 400.000 76.596,201.410 2.312,199.609 2.390 C 198.750 2.428,153.486 19.197,99.023 39.655 M0.000 215.091 L 0.000 327.837 93.164 362.758 C 144.404 381.964,186.592 397.673,186.914 397.667 C 187.236 397.661,187.500 346.920,187.500 284.909 L 187.500 172.163 94.336 137.242 C 43.096 118.036,0.908 102.327,0.586 102.333 C 0.264 102.339,0.000 153.080,0.000 215.091 M361.523 116.214 L 325.000 129.968 325.000 161.278 L 325.000 192.587 300.521 201.762 C 287.057 206.809,275.807 210.938,275.521 210.938 C 275.234 210.938,275.000 197.051,275.000 180.078 C 275.000 163.105,274.736 149.214,274.414 149.209 C 274.092 149.204,260.029 154.364,243.164 160.675 L 212.500 172.152 212.500 284.904 C 212.500 346.918,212.764 397.661,213.086 397.667 C 213.408 397.673,255.596 381.964,306.836 362.758 L 400.000 327.837 400.000 215.091 C 400.000 125.383,399.800 102.356,399.023 102.401 C 398.486 102.433,381.611 108.649,361.523 116.214 M75.521 292.769 L 100.000 301.944 100.000 314.727 C 100.000 324.616,99.779 327.434,99.023 327.169 C 98.486 326.982,87.241 322.813,74.035 317.906 L 50.022 308.984 50.011 296.289 C 50.005 289.307,50.234 283.594,50.521 283.594 C 50.807 283.594,62.057 287.723,75.521 292.769 " stroke="none" fill="#000000" fill-rule="evenodd"></path></g></svg>