<svg id="svg" xmlns="http://www.w3.org/2000/svg" xmlns:xlink="http://www.w3.org/1999/xlink" width="400" height="400" viewBox="0, 0, 400,400"><g id="svgg"><path id="path0" d="M300.631 10.013 C 299.612 11.224,297.911 14.794,296.850 17.947 C 294.968 23.541,294.825 23.722,290.893 25.470 L 286.863 27.260 279.758 24.125 C 270.771 20.159,271.176 20.015,259.961 31.121 C 249.198 41.778,249.108 42.068,253.605 51.652 L 256.430 57.670 254.516 61.843 L 252.603 66.016 245.846 68.208 C 236.580 71.215,236.719 70.932,236.719 86.806 C 236.719 102.329,236.517 101.931,246.017 105.178 L 252.581 107.422 254.491 111.717 L 256.401 116.012 253.591 121.691 C 248.980 131.009,249.143 131.537,259.949 142.371 C 270.747 153.198,271.142 153.318,280.813 148.725 L 286.788 145.888 290.074 147.302 C 294.572 149.239,294.806 149.542,297.269 156.641 C 300.458 165.832,300.028 165.625,315.928 165.625 C 332.133 165.625,331.728 165.819,334.828 156.571 L 337.109 149.763 341.404 147.853 L 345.699 145.942 351.378 148.752 C 360.623 153.327,361.112 153.177,371.998 142.424 C 382.876 131.681,383.018 131.228,378.492 121.698 L 375.733 115.889 377.399 111.536 L 379.065 107.182 385.797 104.730 C 395.798 101.086,395.313 101.987,395.313 87.075 C 395.313 71.795,395.467 72.089,385.547 68.426 C 378.614 65.867,378.487 65.772,376.456 61.696 L 374.396 57.562 377.433 51.283 C 381.956 41.930,382.029 42.165,370.950 30.545 C 361.190 20.310,360.797 20.177,352.113 24.189 L 345.320 27.327 341.195 25.503 C 337.079 23.683,337.065 23.665,335.158 17.583 C 331.963 7.397,332.760 7.813,316.419 7.813 L 302.483 7.813 300.631 10.013 M328.579 59.959 C 356.797 74.395,347.179 116.016,315.625 116.016 C 282.592 116.016,274.671 71.778,305.385 58.825 C 311.938 56.061,321.914 56.549,328.579 59.959 M112.602 87.305 C 110.922 88.898,109.356 92.320,106.541 100.550 L 102.746 111.648 97.272 113.678 C 94.261 114.795,90.215 116.534,88.281 117.542 L 84.766 119.375 73.608 113.515 C 59.383 106.044,61.561 105.337,43.555 123.279 C 26.190 140.582,26.895 138.352,34.087 153.223 L 39.268 163.936 36.485 170.835 C 34.955 174.630,33.470 178.678,33.186 179.831 C 32.863 181.139,31.887 182.203,30.592 182.659 C 29.450 183.060,24.297 184.863,19.141 186.664 C 12.361 189.033,9.171 190.579,7.617 192.248 L 5.469 194.556 5.469 214.844 L 5.469 235.132 7.617 237.440 C 9.171 239.109,12.361 240.655,19.141 243.023 C 24.297 244.825,29.432 246.621,30.552 247.015 C 32.029 247.534,32.851 248.631,33.547 251.014 C 34.075 252.819,35.734 256.872,37.233 260.018 L 39.958 265.740 34.756 276.425 C 27.314 291.712,26.631 289.503,44.250 307.141 C 62.034 324.943,59.999 324.314,75.181 316.706 C 83.271 312.652,85.858 311.683,87.170 312.214 C 88.091 312.586,92.215 314.261,96.336 315.937 L 103.828 318.983 107.906 330.662 C 113.710 347.286,110.789 345.659,135.326 345.934 C 160.857 346.220,158.396 347.494,164.104 331.030 L 168.260 319.040 171.435 318.072 C 173.181 317.539,177.258 315.872,180.495 314.367 L 186.381 311.631 196.901 316.752 C 212.060 324.132,209.921 324.799,227.516 307.204 C 245.095 289.625,244.407 291.965,236.602 276.311 L 231.016 265.108 234.811 256.031 L 238.607 246.953 250.648 242.813 C 266.511 237.358,265.234 239.853,265.234 214.315 C 265.234 189.733,266.679 192.408,250.362 186.774 L 238.614 182.718 237.181 178.664 C 236.393 176.434,234.681 172.415,233.377 169.732 L 231.007 164.855 236.207 153.874 C 243.493 138.486,244.150 140.677,227.148 123.706 C 209.623 106.213,211.654 106.897,197.415 113.693 C 184.197 120.001,186.513 119.827,176.082 115.295 L 167.531 111.580 163.347 99.510 C 157.918 83.847,160.468 85.156,135.385 85.156 L 114.868 85.156 112.602 87.305 M145.703 165.234 C 179.436 172.292,196.613 211.637,178.810 241.067 C 158.086 275.327,108.214 273.932,90.014 238.583 C 70.432 200.550,103.888 156.485,145.703 165.234 M273.244 185.610 C 272.994 185.860,273.455 187.530,274.268 189.321 C 275.608 192.273,275.747 194.667,275.747 214.844 C 275.747 246.159,275.978 245.771,252.344 254.075 C 247.449 255.795,247.188 256.022,245.118 260.366 L 242.971 264.872 247.805 274.428 C 253.271 285.232,254.135 290.547,251.338 296.164 C 248.883 301.093,218.134 330.914,214.340 332.045 C 211.293 332.953,210.912 333.411,207.870 339.813 C 203.805 348.366,203.288 347.198,217.477 361.523 C 231.630 375.812,230.905 375.585,243.001 369.515 L 250.818 365.592 257.689 368.137 L 264.559 370.682 267.940 380.350 C 272.319 392.874,271.230 392.358,292.597 392.036 C 311.977 391.744,310.982 392.304,315.128 379.370 L 317.958 370.540 324.456 368.028 L 330.953 365.516 339.414 369.477 C 352.087 375.410,351.076 375.720,365.357 361.515 C 379.492 347.456,379.071 348.828,373.106 336.279 C 370.775 331.375,369.157 327.185,369.510 326.967 C 369.862 326.748,371.105 323.954,372.271 320.757 C 373.437 317.560,374.792 314.793,375.282 314.607 C 375.771 314.422,379.863 312.965,384.375 311.369 C 395.924 307.286,395.313 308.554,395.313 288.692 L 395.313 272.088 393.292 270.067 C 392.180 268.956,389.807 267.505,388.018 266.844 C 372.069 260.951,373.316 261.681,371.851 257.370 C 371.115 255.206,369.922 252.293,369.200 250.896 C 367.889 248.362,367.894 248.341,371.834 240.094 C 377.599 228.024,377.935 229.078,363.867 215.074 C 349.309 200.583,350.373 200.937,339.102 206.841 L 330.308 211.447 323.716 208.653 L 317.124 205.859 314.358 197.007 C 310.402 184.343,311.994 185.156,291.146 185.156 C 281.549 185.156,273.494 185.361,273.244 185.610 M306.482 249.601 C 336.686 257.468,347.072 293.783,325.532 316.214 C 300.646 342.130,257.097 324.335,257.041 288.228 C 257.001 262.721,281.967 243.215,306.482 249.601 " stroke="none" fill="#000000" fill-rule="evenodd"></path></g></svg>