<svg id="svg" xmlns="http://www.w3.org/2000/svg" xmlns:xlink="http://www.w3.org/1999/xlink" width="400" height="400" viewBox="0, 0, 400,400"><g id="svgg"><path id="path0" d="M191.044 18.057 C 175.833 20.273,160.653 29.773,151.737 42.656 C 147.650 48.561,121.839 94.088,122.144 94.852 C 122.500 95.742,162.463 119.075,162.853 118.620 C 162.976 118.477,169.486 107.196,177.319 93.552 C 192.872 66.465,193.857 65.234,200.000 65.234 C 206.389 65.234,206.500 65.389,231.969 109.488 C 244.911 131.896,255.405 150.294,255.289 150.373 C 255.173 150.452,250.580 153.089,245.083 156.233 C 239.586 159.377,234.752 162.577,234.341 163.345 C 233.111 165.643,233.467 169.956,235.001 171.344 C 237.195 173.329,306.699 201.563,309.393 201.563 C 311.893 201.563,315.625 198.638,315.625 196.679 C 315.625 196.102,317.914 178.717,320.712 158.045 C 326.033 118.730,326.094 117.465,322.745 115.673 C 319.657 114.020,316.802 114.875,307.260 120.313 C 301.983 123.320,297.399 125.776,297.074 125.769 C 296.750 125.762,286.312 108.096,273.880 86.511 C 261.447 64.926,249.980 45.332,248.396 42.969 C 236.090 24.601,213.495 14.786,191.044 18.057 M112.500 148.203 C 92.923 155.813,40.747 177.776,40.039 178.705 C 39.011 180.054,38.736 184.177,39.535 186.260 C 39.795 186.938,44.695 190.199,50.425 193.508 C 56.154 196.817,60.732 199.719,60.599 199.957 C 60.466 200.196,49.737 218.793,36.756 241.285 C 8.252 290.676,9.043 288.891,9.010 303.906 C 8.959 326.818,20.562 343.759,41.557 351.430 L 47.266 353.516 84.180 353.747 L 121.094 353.978 121.094 330.114 L 121.094 306.250 88.755 306.250 C 62.776 306.250,56.340 306.048,56.023 305.224 C 55.741 304.488,95.904 233.597,101.778 224.464 C 102.196 223.815,105.401 225.276,112.485 229.347 C 122.856 235.306,124.325 235.786,127.611 234.289 C 131.649 232.449,131.646 232.357,126.148 191.542 C 123.331 170.628,120.856 152.947,120.649 152.251 C 119.808 149.426,115.218 147.146,112.500 148.203 M336.537 242.778 C 325.480 249.113,316.427 254.661,316.420 255.107 C 316.412 255.552,322.697 266.783,330.385 280.065 C 338.074 293.346,344.189 304.671,343.974 305.231 C 343.658 306.054,333.839 306.250,292.885 306.250 L 242.188 306.250 242.188 294.105 C 242.188 280.272,241.326 278.125,235.775 278.125 C 233.357 278.125,174.583 322.101,171.289 326.375 C 169.381 328.851,170.093 333.082,172.852 335.658 C 176.110 338.702,230.126 380.345,232.820 381.891 C 239.522 385.738,242.188 381.290,242.188 366.259 L 242.188 353.906 295.508 353.895 C 354.632 353.882,354.064 353.924,364.533 348.759 C 385.864 338.235,397.347 309.776,389.092 287.891 C 387.398 283.398,357.891 231.245,357.049 231.254 C 356.824 231.257,347.594 236.442,336.537 242.778 " stroke="none" fill="#000000" fill-rule="evenodd"></path></g></svg>