<svg id="svg" xmlns="http://www.w3.org/2000/svg" xmlns:xlink="http://www.w3.org/1999/xlink" width="400" height="400" viewBox="0, 0, 400,400"><g id="svgg"><path id="path0" d="M193.879 0.830 C 192.875 1.232,188.657 4.605,184.504 8.325 C 148.580 40.504,110.193 55.123,55.469 57.468 C 41.052 58.086,37.978 59.069,34.627 64.131 L 32.422 67.463 31.712 105.411 C 29.619 217.198,41.325 270.514,79.068 321.094 C 103.413 353.719,148.062 384.035,193.600 398.859 C 211.296 404.620,271.536 372.436,303.930 339.913 C 354.445 289.197,370.632 230.115,368.283 105.020 L 367.578 67.461 365.373 64.130 C 362.022 59.069,358.947 58.086,344.531 57.468 C 289.903 55.127,250.501 40.162,216.016 8.656 C 206.738 0.181,200.767 -1.930,193.879 0.830 M275.651 159.118 C 275.081 160.532,188.002 241.914,185.309 243.551 C 181.615 245.795,175.618 245.921,172.184 243.828 C 170.329 242.696,130.013 198.983,125.247 192.935 C 124.400 191.860,142.947 174.093,144.949 174.060 C 145.251 174.055,153.034 182.439,162.243 192.690 C 171.452 202.941,179.306 211.441,179.696 211.578 C 180.086 211.715,197.710 195.350,218.861 175.211 L 257.316 138.594 266.614 148.533 C 271.728 153.999,275.794 158.762,275.651 159.118 " stroke="none" fill="#000000" fill-rule="evenodd"></path></g></svg>